<svg xmlns="http://www.w3.org/2000/svg" viewBox="0 0 300 160">
  <rect x="10" y="10" width="280" height="140" rx="10" ry="10" fill="#f0f0f0" />
  <rect x="20" y="20" width="260" height="30" rx="5" ry="5" fill="#333333" />
  <text x="30" y="42" font-family="monospace" font-size="20" fill="#00ff00">> wip</text>
  <path d="M75 50 L75 140 M75 65 L35 80 M75 85 L35 100 M75 105 L35 120 M75 75 L115 90 M75 95 L115 110" stroke="#333333" stroke-width="3" fill="none" />
  <path d="M225 50 L225 140 M225 60 L185 75 M225 80 L185 95 M225 100 L185 115 M225 70 L265 85 M225 90 L265 105 M225 110 L265 125" stroke="#333333" stroke-width="3" fill="none" />
  <circle cx="35" cy="80" r="7" fill="#4CAF50" />
  <circle cx="35" cy="100" r="7" fill="#FFC107" />
  <circle cx="35" cy="120" r="7" fill="#2196F3" />
  <circle cx="115" cy="90" r="7" fill="#FF5722" />
  <circle cx="115" cy="110" r="7" fill="#9C27B0" />
  <circle cx="185" cy="75" r="7" fill="#4CAF50" />
  <circle cx="185" cy="95" r="7" fill="#FFC107" />
  <circle cx="185" cy="115" r="7" fill="#2196F3" />
  <circle cx="265" cy="85" r="7" fill="#FF5722" />
  <circle cx="265" cy="105" r="7" fill="#9C27B0" />
  <circle cx="265" cy="125" r="7" fill="#795548" />
</svg>
